<svg width="19" height="20" viewBox="0 0 19 20" fill="none" xmlns="http://www.w3.org/2000/svg">
<path d="M11.9452 7.11126C11.6892 7.05526 11.3892 7.02726 11.0452 7.02726C10.5012 7.02726 9.99719 7.14326 9.53319 7.37526C9.06919 7.60726 8.66519 7.91526 8.32119 8.29926C7.98519 8.68326 7.72119 9.12726 7.52919 9.63126C7.33719 10.1273 7.24119 10.6393 7.24119 11.1673C7.24119 11.7113 7.36119 12.1393 7.60119 12.4513C7.84919 12.7633 8.20519 12.9193 8.66919 12.9193C8.89319 12.9193 9.12119 12.8833 9.35319 12.8113C9.58519 12.7393 9.80519 12.6153 10.0132 12.4393C10.2292 12.2553 10.4252 12.0113 10.6012 11.7073C10.7852 11.4033 10.9372 11.0233 11.0572 10.5673L11.9452 7.11126ZM13.0492 10.3033C12.9052 10.8553 12.8332 11.3073 12.8332 11.6593C12.8332 12.0113 12.8852 12.2873 12.9892 12.4873C13.1012 12.6793 13.2532 12.8153 13.4452 12.8953C13.6372 12.9673 13.8492 13.0033 14.0812 13.0033C14.4412 13.0033 14.7852 12.8953 15.1132 12.6793C15.4412 12.4633 15.7252 12.1593 15.9652 11.7673C16.2132 11.3753 16.4092 10.9073 16.5532 10.3633C16.6972 9.81126 16.7692 9.20726 16.7692 8.55126C16.7692 7.47926 16.5972 6.53926 16.2532 5.73126C15.9172 4.92326 15.4492 4.24726 14.8492 3.70326C14.2492 3.15926 13.5372 2.75126 12.7132 2.47926C11.8892 2.20726 10.9932 2.07126 10.0252 2.07126C8.96919 2.07126 7.98119 2.27126 7.06119 2.67126C6.14919 3.07126 5.35319 3.62326 4.67319 4.32726C4.00119 5.03126 3.46919 5.86326 3.07719 6.82326C2.69319 7.78326 2.50119 8.81926 2.50119 9.93126C2.50119 11.2673 2.70919 12.4393 3.12519 13.4473C3.54119 14.4553 4.10919 15.2993 4.82919 15.9793C5.55719 16.6593 6.41319 17.1713 7.39719 17.5153C8.38119 17.8593 9.43719 18.0313 10.5652 18.0313C11.7972 18.0313 12.8692 17.9033 13.7812 17.6473C14.6932 17.3913 15.4612 17.0793 16.0852 16.7113C16.2692 16.5993 16.4332 16.5673 16.5772 16.6153C16.7212 16.6553 16.8252 16.7593 16.8892 16.9273L17.2492 17.8753C16.4012 18.4353 15.4252 18.8833 14.3212 19.2193C13.2252 19.5553 11.9732 19.7233 10.5652 19.7233C9.14919 19.7233 7.83319 19.4993 6.61719 19.0513C5.40119 18.6033 4.34919 17.9593 3.46119 17.1193C2.57319 16.2793 1.87719 15.2553 1.37319 14.0473C0.869186 12.8313 0.617186 11.4593 0.617186 9.93126C0.617186 9.06726 0.725186 8.23526 0.941186 7.43526C1.16519 6.62726 1.47719 5.87126 1.87719 5.16726C2.28519 4.45526 2.77319 3.80726 3.34119 3.22326C3.90919 2.63126 4.54119 2.12726 5.23719 1.71126C5.93319 1.28726 6.68519 0.959261 7.49319 0.727261C8.30119 0.495261 9.14519 0.379261 10.0252 0.379261C10.7692 0.379261 11.4972 0.463261 12.2092 0.631261C12.9292 0.791261 13.6052 1.03126 14.2372 1.35126C14.8772 1.67126 15.4652 2.06726 16.0012 2.53926C16.5372 3.01126 16.9972 3.55126 17.3812 4.15926C17.7732 4.75926 18.0772 5.42726 18.2932 6.16326C18.5092 6.89926 18.6172 7.69526 18.6172 8.55126C18.6172 9.40726 18.4932 10.2073 18.2452 10.9513C17.9972 11.6873 17.6532 12.3273 17.2132 12.8713C16.7732 13.4153 16.2532 13.8433 15.6532 14.1553C15.0532 14.4673 14.4052 14.6233 13.7092 14.6233C13.1252 14.6233 12.6292 14.4873 12.2212 14.2153C11.8132 13.9433 11.5372 13.5073 11.3932 12.9073C10.9212 13.5073 10.4172 13.9393 9.88119 14.2033C9.35319 14.4673 8.77719 14.5993 8.15319 14.5993C7.66519 14.5993 7.23719 14.5153 6.86919 14.3473C6.50919 14.1713 6.20919 13.9353 5.96919 13.6393C5.72919 13.3353 5.54919 12.9793 5.42919 12.5713C5.30919 12.1553 5.24919 11.7073 5.24919 11.2273C5.24919 10.7713 5.30519 10.3113 5.41719 9.84726C5.53719 9.38326 5.70919 8.93526 5.93319 8.50326C6.16519 8.07126 6.45319 7.66726 6.79719 7.29126C7.14919 6.90726 7.55319 6.57526 8.00919 6.29526C8.47319 6.01526 8.99319 5.79526 9.56919 5.63526C10.1452 5.46726 10.7772 5.38326 11.4652 5.38326C12.0412 5.38326 12.5412 5.42726 12.9652 5.51526C13.3892 5.60326 13.7932 5.73126 14.1772 5.89926L13.0492 10.3033Z" fill="#656565"/>
</svg>
