<svg width="25" height="20" viewBox="0 0 25 20" fill="none" xmlns="http://www.w3.org/2000/svg">
<path id="Vector" d="M22.3906 0H2.60938C1.44772 0 0.5 0.998472 0.5 2.22476V17.0565C0.5 18.2786 1.4435 19.2812 2.60938 19.2812H22.3906C23.5494 19.2812 24.5 18.2861 24.5 17.0565V2.22476C24.5 1.00262 23.5565 0 22.3906 0ZM22.0993 1.48317L12.5447 11.5605L2.90745 1.48317H22.0993ZM1.90625 16.7494V2.52481L8.6787 9.60646L1.90625 16.7494ZM2.90061 17.7981L9.67733 10.6507L12.0519 13.1336C12.3267 13.421 12.7703 13.4201 13.0441 13.1313L15.3594 10.6894L22.0994 17.7981H2.90061ZM23.0938 16.7493L16.3537 9.64062L23.0938 2.53188V16.7493Z" fill="black"/>
</svg>
