<svg width="22" height="17" viewBox="0 0 22 17" fill="none" xmlns="http://www.w3.org/2000/svg">
<path id="Vector" d="M19.4043 0.202637H2.0957C1.07925 0.202637 0.25 1.04569 0.25 2.0811V14.6042C0.25 15.6361 1.07556 16.4826 2.0957 16.4826H19.4043C20.4182 16.4826 21.25 15.6424 21.25 14.6042V2.0811C21.25 1.0492 20.4244 0.202637 19.4043 0.202637ZM19.1494 1.45494L10.7891 9.96367L2.35652 1.45494H19.1494ZM1.48047 14.3449V2.33444L7.40637 8.31379L1.48047 14.3449ZM2.35053 15.2303L8.28016 9.19546L10.3579 11.2919C10.5984 11.5346 10.9865 11.5338 11.2261 11.29L13.252 9.22814L19.1495 15.2303H2.35053ZM20.0195 14.3448L14.122 8.34264L20.0195 2.34041V14.3448Z" fill="#656565"/>
</svg>
