<svg width="24" height="25" viewBox="0 0 24 25" fill="none" xmlns="http://www.w3.org/2000/svg">
<path d="M8.37469 0.65686C5.54905 1.69191 3.10525 3.92126 1.73061 6.70794C1.2724 7.66337 0.890552 8.69842 0.737814 9.81309C0.203233 12.4405 0.585077 15.3068 1.73061 17.6954C2.4943 19.2878 3.56346 20.6413 4.9381 21.756C6.16 22.7911 7.611 23.5872 9.21475 23.9853C11.2003 24.5427 13.2623 24.5427 15.1715 24.065C16.928 23.6669 18.6081 22.7911 19.9827 21.4375C21.4338 20.084 22.4265 18.3324 22.9611 16.3419C23.5721 14.2718 23.6484 12.0424 23.2666 9.89271C19.6009 9.89271 15.9352 9.89271 12.2695 9.89271C12.2695 11.4851 12.2695 13.0775 12.2695 14.6699C14.4078 14.6699 16.5462 14.6699 18.6081 14.6699C18.379 16.1826 17.4626 17.6158 16.2407 18.412C15.477 18.9693 14.5606 19.2878 13.6441 19.447C12.7277 19.6063 11.7349 19.6063 10.8185 19.447C9.90207 19.2878 8.98564 18.8101 8.22195 18.2527C7.00005 17.3769 6.00726 16.0234 5.54905 14.5106C5.01447 12.9979 5.01447 11.3259 5.54905 9.73347C5.93089 8.69842 6.46547 7.66337 7.22916 6.86717C8.14558 5.83212 9.36749 5.11555 10.7421 4.87669C11.8877 4.63783 13.0332 4.63783 14.1787 5.03593C15.0951 5.3544 16.0116 5.91174 16.6989 6.5487C17.3862 5.83212 18.1499 5.03593 18.8372 4.31935C19.2191 3.92126 19.6009 3.52316 19.9827 3.12506C18.9136 2.09001 17.6153 1.2142 16.2407 0.65686C13.7205 -0.218953 10.8949 -0.218953 8.37469 0.65686Z" fill="white"/>
<path d="M8.3748 0.65651C10.895 -0.219304 13.7206 -0.219304 16.2408 0.736129C17.6154 1.29347 18.9137 2.08966 19.9828 3.20433C19.601 3.60243 19.2192 4.00052 18.8373 4.39862C18.15 5.1152 17.3863 5.91139 16.699 6.62796C16.0117 5.91139 15.0952 5.35405 14.1788 5.1152C13.1097 4.79672 11.8878 4.7171 10.7422 4.95596C9.44396 5.27443 8.22206 5.99101 7.22926 6.94644C6.46558 7.74264 5.85463 8.77769 5.54915 9.81274C4.25088 8.77769 3.02898 7.74264 1.73071 6.70758C3.10535 3.9209 5.54915 1.69156 8.3748 0.65651Z" fill="#EA4335"/>
<path d="M0.737814 9.81316C0.966921 8.77811 1.2724 7.74306 1.73061 6.70801C3.02888 7.74306 4.25078 8.77811 5.54905 9.81316C5.01447 11.3259 5.01447 12.9979 5.54905 14.5903C4.25078 15.6254 3.02888 16.6604 1.73061 17.6955C0.585077 15.2273 0.203233 12.4406 0.737814 9.81316Z" fill="#FBBC05"/>
<path d="M12.1929 9.89282C15.8586 9.89282 19.5243 9.89282 23.19 9.89282C23.5718 12.0425 23.4954 14.2719 22.8845 16.342C22.3499 18.2529 21.3571 20.0045 19.9061 21.4376C18.6842 20.4026 17.4623 19.4472 16.164 18.4121C17.3859 17.5363 18.226 16.1828 18.5315 14.67C16.3932 14.67 14.2548 14.67 12.1929 14.67C12.1929 13.0776 12.1929 11.4852 12.1929 9.89282Z" fill="#4285F4"/>
<path d="M1.73047 17.6955C3.02874 16.6604 4.25064 15.6254 5.54891 14.5903C6.00712 16.1031 6.99991 17.4566 8.22181 18.3324C8.9855 18.8898 9.90193 19.2879 10.8184 19.5267C11.7348 19.686 12.6512 19.686 13.644 19.5267C14.5604 19.3675 15.4768 18.9694 16.2405 18.4917C17.4624 19.5267 18.6843 20.4822 19.9826 21.5172C18.608 22.7911 17.0042 23.6669 15.1714 24.1447C13.1858 24.6224 11.1238 24.6224 9.21461 24.065C7.68723 23.6669 6.23623 22.8708 4.93796 21.8357C3.63969 20.6414 2.49416 19.2083 1.73047 17.6955Z" fill="#34A853"/>
</svg>
