<svg width="26" height="26" viewBox="0 0 26 26" fill="none" xmlns="http://www.w3.org/2000/svg">
<g clip-path="url(#clip0_501_351)">
<path d="M15.6959 10.2336C15.4928 10.0305 15.1625 10.0305 14.9594 10.2336C14.7563 10.4368 14.7563 10.768 14.9594 10.9701C15.549 11.5597 15.875 12.3441 15.875 13.1795C15.875 14.9024 14.4729 16.3045 12.75 16.3045C11.9146 16.3045 11.1303 15.9795 10.5407 15.3889C10.3375 15.1857 10.0073 15.1857 9.8042 15.3889C9.60107 15.591 9.60107 15.9222 9.8042 16.1253C10.5896 16.9128 11.6365 17.3462 12.75 17.3462C15.0479 17.3462 16.9167 15.4774 16.9167 13.1795C16.9167 12.0659 16.4834 11.019 15.6959 10.2336Z" fill="#656565"/>
<path d="M13.4762 9.08481C13.2397 9.04316 12.998 9.01294 12.7501 9.01294C10.4522 9.01294 8.5835 10.8817 8.5835 13.1796C8.5835 13.4275 8.61372 13.6692 8.6564 13.9056C8.70117 14.1577 8.921 14.3358 9.16787 14.3358C9.1981 14.3358 9.22827 14.3337 9.25952 14.3275C9.5418 14.2775 9.7314 14.0066 9.6814 13.7244C9.64912 13.5473 9.62515 13.3671 9.62515 13.1796C9.62515 11.4567 11.0272 10.0546 12.7501 10.0546C12.9376 10.0546 13.1179 10.0786 13.2949 10.1098C13.572 10.1661 13.848 9.97021 13.898 9.68794C13.9481 9.40566 13.7585 9.13481 13.4762 9.08481Z" fill="#656565"/>
<path d="M25.126 12.843C25.0083 12.7034 22.1906 9.41493 18.3042 7.4014C18.0521 7.26913 17.7344 7.36913 17.6021 7.62538C17.4698 7.8806 17.5698 8.19515 17.826 8.32748C20.8198 9.87747 23.2114 12.2962 24.0291 13.1796C22.7875 14.5243 17.901 19.4296 12.75 19.4296C11.0021 19.4296 9.24065 19.0077 7.51253 18.1743C7.25628 18.0483 6.94275 18.1577 6.81775 18.4171C6.69173 18.6754 6.8011 18.9868 7.06048 19.1118C8.93025 20.015 10.8448 20.4712 12.7501 20.4712C19.1678 20.4712 24.8865 13.8004 25.1271 13.516C25.2916 13.3222 25.2906 13.0378 25.126 12.843Z" fill="#656565"/>
<path d="M16.1673 6.48794C14.9819 6.08896 13.8319 5.88794 12.7496 5.88794C6.33185 5.88794 0.613107 12.5588 0.372483 12.8432C0.220383 13.0223 0.207883 13.2828 0.343332 13.4775C0.415207 13.5806 2.13708 16.0254 5.12145 18.0077C5.20997 18.0671 5.30895 18.0952 5.40895 18.0952C5.57667 18.0952 5.7423 18.014 5.8423 17.8609C6.00167 17.6223 5.93605 17.2984 5.69645 17.14C3.5048 15.6827 2.0048 13.9234 1.44333 13.2078C2.6423 11.9057 7.56104 6.92964 12.7496 6.92964C13.7193 6.92964 14.7579 7.11299 15.835 7.47441C16.1079 7.57231 16.4037 7.42129 16.4943 7.14731C16.586 6.87441 16.4402 6.57964 16.1673 6.48794Z" fill="#656565"/>
<path d="M21.9718 3.95776C21.7687 3.75464 21.4385 3.75464 21.2354 3.95776L3.5271 21.6661C3.32397 21.8692 3.32397 22.1994 3.5271 22.4026C3.6292 22.5036 3.7625 22.5547 3.89585 22.5547C4.0292 22.5547 4.1625 22.5036 4.26357 22.4026L21.9718 4.69424C22.175 4.49111 22.175 4.16089 21.9718 3.95776Z" fill="#656565"/>
</g>
<defs>
<clipPath id="clip0_501_351">
<rect width="25" height="25" fill="white" transform="translate(0.25 0.679932)"/>
</clipPath>
</defs>
</svg>
