<svg width="20" height="22" viewBox="0 0 20 22" fill="none" xmlns="http://www.w3.org/2000/svg">
<path d="M16.8611 9.86133H3.63889C2.59568 9.86133 1.75 10.742 1.75 11.8283V18.7128C1.75 19.7992 2.59568 20.6798 3.63889 20.6798H16.8611C17.9043 20.6798 18.75 19.7992 18.75 18.7128V11.8283C18.75 10.742 17.9043 9.86133 16.8611 9.86133Z" stroke="#656565" stroke-width="1.8" stroke-linecap="round" stroke-linejoin="round"/>
<path d="M5.52783 9.86151V5.92751C5.52783 4.62331 6.02535 3.37252 6.91094 2.45031C7.79653 1.5281 8.99764 1.01001 10.2501 1.01001C11.5025 1.01001 12.7036 1.5281 13.5892 2.45031C14.4748 3.37252 14.9723 4.62331 14.9723 5.92751V9.86151" stroke="#656565" stroke-width="1.8" stroke-linecap="round" stroke-linejoin="round"/>
</svg>
