<svg width="45" height="29" viewBox="0 0 45 29" fill="none" xmlns="http://www.w3.org/2000/svg">
<path d="M5.73675 27.75H2.02246V25.8928C2.02246 22.4314 4.3899 19.5229 7.59389 18.6983M11.3082 12.5758C9.14424 11.811 7.59389 9.74728 7.59389 7.32144C7.59389 4.89561 9.14424 2.83188 11.3082 2.06704M39.1653 27.75H42.8796V25.8928C42.8796 22.4314 40.5122 19.5229 37.3082 18.6983M33.5939 2.06704C35.7578 2.83188 37.3082 4.89561 37.3082 7.32144C37.3082 9.74728 35.7578 11.811 33.5939 12.5758M18.7367 18.4643H26.1653C30.268 18.4643 33.5939 21.7902 33.5939 25.8928V27.75H11.3082V25.8928C11.3082 21.7902 14.6341 18.4643 18.7367 18.4643ZM28.0225 7.32143C28.0225 10.3984 25.528 12.8929 22.451 12.8929C19.374 12.8929 16.8796 10.3984 16.8796 7.32143C16.8796 4.24441 19.374 1.75 22.451 1.75C25.528 1.75 28.0225 4.24441 28.0225 7.32143Z" stroke="white" stroke-width="2.5" stroke-linecap="round" stroke-linejoin="round"/>
</svg>
